<?xml version="1.0" standalone="no"?>
<!DOCTYPE svg PUBLIC "-//W3C//DTD SVG 20010904//EN"
 "http://www.w3.org/TR/2001/REC-SVG-20010904/DTD/svg10.dtd">
<svg version="1.0" xmlns="http://www.w3.org/2000/svg"
 width="188.000000pt" height="70.000000pt" viewBox="0 0 188.000000 70.000000"
 preserveAspectRatio="xMidYMid meet">

<g transform="translate(0.000000,70.000000) scale(0.100000,-0.100000)"
fill="#000000" stroke="none">
<path d="M710 689 c-334 -31 -602 -133 -681 -257 -35 -55 -36 -90 -8 -150 91
-186 625 -317 1118 -273 570 51 881 266 674 467 -165 161 -655 256 -1103 213z
m451 -29 c222 -22 381 -62 517 -130 263 -132 194 -317 -158 -424 -399 -120
-975 -96 -1296 54 -442 205 -36 502 697 509 75 0 183 -4 240 -9z"/>
<path d="M670 629 c-130 -15 -278 -48 -374 -85 -311 -119 -293 -292 41 -403
176 -60 305 -76 603 -76 233 0 280 3 390 23 226 42 395 114 454 195 27 37 27
97 0 134 -72 98 -303 182 -586 212 -112 13 -418 12 -528 0z m228 -60 c123 -19
239 -22 302 -7 28 6 15 -26 -19 -49 -44 -30 -114 -30 -223 -3 -65 17 -83 19
-96 8 -35 -26 -74 -64 -83 -80 -8 -15 -5 -18 20 -18 22 0 30 6 35 24 7 30 35
41 54 23 11 -12 11 -19 3 -36 -7 -11 -17 -21 -23 -21 -7 0 -6 -5 2 -15 10 -12
10 -15 -2 -15 -8 0 -19 5 -25 11 -7 7 -26 8 -52 4 -38 -6 -45 -13 -92 -85 -84
-131 -152 -176 -232 -153 -43 12 -73 65 -63 115 8 43 50 88 82 88 30 0 30 -9
-1 -35 -51 -42 -37 -105 23 -105 40 0 86 32 136 97 45 57 47 75 6 53 -12 -6
-24 -9 -27 -6 -11 11 10 27 51 37 32 8 51 21 74 51 17 22 45 50 62 63 17 13
27 26 22 29 -5 3 -41 9 -81 12 -83 8 -150 -12 -171 -51 -29 -54 23 -75 72 -28
34 32 45 25 24 -15 -37 -72 -110 -92 -149 -41 -17 24 -18 31 -7 63 13 41 58
80 110 94 55 16 120 14 268 -9z m575 -152 c-4 -8 -38 -61 -75 -119 -38 -57
-68 -110 -68 -116 0 -21 22 -13 67 24 54 45 69 37 22 -12 -58 -60 -104 -77
-133 -49 -14 14 -19 14 -47 -1 -41 -21 -77 -6 -85 35 -6 27 -8 29 -45 24 -30
-4 -40 -2 -45 11 -10 25 -20 19 -51 -29 -22 -35 -34 -45 -55 -45 l-28 0 45 74
c25 40 45 76 45 80 0 22 -37 -4 -92 -65 -34 -39 -75 -77 -90 -85 -33 -17 -73
-9 -92 18 -12 17 -17 18 -35 7 -29 -19 -38 -3 -14 24 11 12 31 41 43 64 28 51
103 95 123 73 9 -10 9 -14 -3 -18 -27 -9 -80 -69 -80 -90 0 -24 23 -45 46 -40
29 5 58 55 59 100 1 51 30 67 41 23 l7 -26 31 29 c42 40 63 45 85 23 16 -16
20 -16 37 -4 10 8 30 13 44 11 19 -2 26 -10 28 -31 4 -32 -21 -46 -50 -28 -15
9 -20 9 -24 -4 -8 -21 14 -45 34 -38 9 4 42 26 72 49 70 54 101 63 129 35 l21
-21 42 65 c36 54 48 65 71 65 21 0 26 -3 20 -13z"/>
<path d="M857 453 c-10 -9 -9 -23 2 -23 5 0 11 7 15 15 5 15 -5 20 -17 8z"/>
<path d="M1239 269 c-34 -37 -40 -89 -10 -89 37 0 93 83 74 112 -9 16 -36 7
-64 -23z"/>
</g>
</svg>
